<svg width="261" height="80" viewBox="0 0 261 80" fill="none" xmlns="http://www.w3.org/2000/svg">
<path d="M33.1688 37.5094H23.9688V79.1094H6.86875V37.5094H0.66875V23.3094H6.86875V21.7094C6.86875 14.8427 8.83542 9.6427 12.7688 6.10937C16.7021 2.50937 22.4688 0.709371 30.0688 0.709371C31.3354 0.709371 32.2688 0.742704 32.8688 0.80937V15.3094C29.6021 15.1094 27.3021 15.576 25.9688 16.7094C24.6354 17.8427 23.9688 19.876 23.9688 22.8094V23.3094H33.1688V37.5094ZM37.8039 51.1094C37.8039 45.376 38.8706 40.3427 41.0039 36.0094C43.2039 31.676 46.1706 28.3427 49.9039 26.0094C53.6372 23.676 57.8039 22.5094 62.4039 22.5094C66.3372 22.5094 69.7706 23.3094 72.7039 24.9094C75.7039 26.5094 78.0039 28.6094 79.6039 31.2094V23.3094H96.7039V79.1094H79.6039V71.2094C77.9372 73.8094 75.6039 75.9094 72.6039 77.5094C69.6706 79.1094 66.2372 79.9094 62.3039 79.9094C57.7706 79.9094 53.6372 78.7427 49.9039 76.4094C46.1706 74.0094 43.2039 70.6427 41.0039 66.3094C38.8706 61.9094 37.8039 56.8427 37.8039 51.1094ZM79.6039 51.2094C79.6039 46.9427 78.4039 43.576 76.0039 41.1094C73.6706 38.6427 70.8039 37.4094 67.4039 37.4094C64.0039 37.4094 61.1039 38.6427 58.7039 41.1094C56.3706 43.5094 55.2039 46.8427 55.2039 51.1094C55.2039 55.376 56.3706 58.776 58.7039 61.3094C61.1039 63.776 64.0039 65.0094 67.4039 65.0094C70.8039 65.0094 73.6706 63.776 76.0039 61.3094C78.4039 58.8427 79.6039 55.476 79.6039 51.2094ZM131.775 79.9094C126.908 79.9094 122.575 79.076 118.775 77.4094C114.975 75.7427 111.975 73.476 109.775 70.6094C107.575 67.676 106.342 64.4094 106.075 60.8094H122.975C123.175 62.7427 124.075 64.3094 125.675 65.5094C127.275 66.7094 129.242 67.3094 131.575 67.3094C133.708 67.3094 135.342 66.9094 136.475 66.1094C137.675 65.2427 138.275 64.1427 138.275 62.8094C138.275 61.2094 137.442 60.0427 135.775 59.3094C134.108 58.5094 131.408 57.6427 127.675 56.7094C123.675 55.776 120.342 54.8094 117.675 53.8094C115.008 52.7427 112.708 51.1094 110.775 48.9094C108.842 46.6427 107.875 43.6094 107.875 39.8094C107.875 36.6094 108.742 33.7094 110.475 31.1094C112.275 28.4427 114.875 26.3427 118.275 24.8094C121.742 23.276 125.842 22.5094 130.575 22.5094C137.575 22.5094 143.075 24.2427 147.075 27.7094C151.142 31.176 153.475 35.776 154.075 41.5094H138.275C138.008 39.576 137.142 38.0427 135.675 36.9094C134.275 35.776 132.408 35.2094 130.075 35.2094C128.075 35.2094 126.542 35.6094 125.475 36.4094C124.408 37.1427 123.875 38.176 123.875 39.5094C123.875 41.1094 124.708 42.3094 126.375 43.1094C128.108 43.9094 130.775 44.7094 134.375 45.5094C138.508 46.576 141.875 47.6427 144.475 48.7094C147.075 49.7094 149.342 51.376 151.275 53.7094C153.275 55.976 154.308 59.0427 154.375 62.9094C154.375 66.176 153.442 69.1094 151.575 71.7094C149.775 74.2427 147.142 76.2427 143.675 77.7094C140.275 79.176 136.308 79.9094 131.775 79.9094ZM195.937 64.6094V79.1094H187.237C181.037 79.1094 176.203 77.6094 172.737 74.6094C169.27 71.5427 167.537 66.576 167.537 59.7094V37.5094H160.737V23.3094H167.537V9.70937H184.637V23.3094H195.837V37.5094H184.637V59.9094C184.637 61.576 185.037 62.776 185.837 63.5094C186.637 64.2427 187.97 64.6094 189.837 64.6094H195.937ZM239.462 22.7094C245.995 22.7094 251.195 24.8427 255.062 29.1094C258.995 33.3094 260.962 39.1094 260.962 46.5094V79.1094H243.962V48.8094C243.962 45.076 242.995 42.176 241.062 40.1094C239.128 38.0427 236.528 37.0094 233.262 37.0094C229.995 37.0094 227.395 38.0427 225.462 40.1094C223.528 42.176 222.562 45.076 222.562 48.8094V79.1094H205.462V23.3094H222.562V30.7094C224.295 28.2427 226.628 26.3094 229.562 24.9094C232.495 23.4427 235.795 22.7094 239.462 22.7094Z" fill="#3A5485"/>
</svg>
